name Run_500 02_newCOP3_v24.mot
datacolumns 19
datarows 152
range 3.765 3.916
DataType=double
version=3
OpenSimVersion=4.3-2021-08-27-4bc7ad9
endheader
time	R_ground_force_vx	R_ground_force_vy	R_ground_force_vz	R_ground_force_px	R_ground_force_py	R_ground_force_pz	L_ground_force_vx	L_ground_force_vy	L_ground_force_vz	L_ground_force_px	L_ground_force_py	L_ground_force_pz	R_ground_torque_x	R_ground_torque_y	R_ground_torque_z	L_ground_torque_x	L_ground_torque_y	L_ground_torque_z
3.765	69.11386899999999	91.427063	-2.563762	0.328785	0	-0.254721	0	0	0	0	0	0	-0	0.380241	-0	0	0	0
3.766	64.499527	83.099045	-3.468256	0.311062	0	-0.245138	0	0	0	0	0	0	-0	0.481796	-0	0	0	0
3.767	59.933746	75.422737	-4.287462	0.29043	0	-0.232532	0	0	0	0	0	0	-0	0.5718569999999999	-0	0	0	0
3.768	55.436127	68.375969	-5.006321	0.265764	0	-0.215445	0	0	0	0	0	0	-0	0.649997	-0	0	0	0
3.769	51.026344	61.93301	-5.610754	0.235172	0	-0.191359	0	0	0	0	0	0	-0	0.715733	-0	0	0	0
3.77	46.723858	56.065083	-6.088025	0.195166	0	-0.155515	0	0	0	0	0	0	-0	0.768525	-0	0	0	0
3.771	42.547592	50.740963	-6.427113	0.138429	0	-0.097756	0	0	0	0	0	0	-0	0.807775	-0	0	0	0
3.772	0	0	0	0	0	0	0	0	0	0	0	0	0	0	0	0	0	0
3.773	0	0	0	0	0	0	0	0	0	0	0	0	0	0	0	0	0	0
3.774	0	0	0	0	0	0	0	0	0	0	0	0	0	0	0	0	0	0
3.775	0	0	0	0	0	0	0	0	0	0	0	0	0	0	0	0	0	0
3.776	0	0	0	0	0	0	0	0	0	0	0	0	0	0	0	0	0	0
3.777	0	0	0	0	0	0	0	0	0	0	0	0	0	0	0	0	0	0
3.778	0	0	0	0	0	0	0	0	0	0	0	0	0	0	0	0	0	0
3.779	0	0	0	0	0	0	0	0	0	0	0	0	0	0	0	0	0	0
3.78	0	0	0	0	0	0	0	0	0	0	0	0	0	0	0	0	0	0
3.781	0	0	0	0	0	0	0	0	0	0	0	0	0	0	0	0	0	0
3.782	0	0	0	0	0	0	0	0	0	0	0	0	0	0	0	0	0	0
3.783	0	0	0	0	0	0	0	0	0	0	0	0	0	0	0	0	0	0
3.784	0	0	0	0	0	0	0	0	0	0	0	0	0	0	0	0	0	0
3.785	0	0	0	0	0	0	0	0	0	0	0	0	0	0	0	0	0	0
3.786	0	0	0	0	0	0	0	0	0	0	0	0	0	0	0	0	0	0
3.787	0	0	0	0	0	0	0	0	0	0	0	0	0	0	0	0	0	0
3.788	0	0	0	0	0	0	0	0	0	0	0	0	0	0	0	0	0	0
3.789	0	0	0	0	0	0	0	0	0	0	0	0	0	0	0	0	0	0
3.79	0	0	0	0	0	0	0	0	0	0	0	0	0	0	0	0	0	0
3.791	0	0	0	0	0	0	0	0	0	0	0	0	0	0	0	0	0	0
3.792	0	0	0	0	0	0	0	0	0	0	0	0	0	0	0	0	0	0
3.793	0	0	0	0	0	0	0	0	0	0	0	0	0	0	0	0	0	0
3.794	0	0	0	0	0	0	0	0	0	0	0	0	0	0	0	0	0	0
3.795	0	0	0	0	0	0	0	0	0	0	0	0	0	0	0	0	0	0
3.796	0	0	0	0	0	0	0	0	0	0	0	0	0	0	0	0	0	0
3.797	0	0	0	0	0	0	0	0	0	0	0	0	0	0	0	0	0	0
3.798	0	0	0	0	0	0	0	0	0	0	0	0	0	0	0	0	0	0
3.799	0	0	0	0	0	0	0	0	0	0	0	0	0	0	0	0	0	0
3.8	0	0	0	0	0	0	0	0	0	0	0	0	0	0	0	0	0	0
3.801	0	0	0	0	0	0	0	0	0	0	0	0	0	0	0	0	0	0
3.802	0	0	0	0	0	0	0	0	0	0	0	0	0	0	0	0	0	0
3.803	0	0	0	0	0	0	0	0	0	0	0	0	0	0	0	0	0	0
3.804	0	0	0	0	0	0	0	0	0	0	0	0	0	0	0	0	0	0
3.805	0	0	0	0	0	0	0	0	0	0	0	0	0	0	0	0	0	0
3.806	0	0	0	0	0	0	0	0	0	0	0	0	0	0	0	0	0	0
3.807	0	0	0	0	0	0	0	0	0	0	0	0	0	0	0	0	0	0
3.808	0	0	0	0	0	0	0	0	0	0	0	0	0	0	0	0	0	0
3.809	0	0	0	0	0	0	0	0	0	0	0	0	0	0	0	0	0	0
3.81	0	0	0	0	0	0	0	0	0	0	0	0	0	0	0	0	0	0
3.811	0	0	0	0	0	0	0	0	0	0	0	0	0	0	0	0	0	0
3.812	0	0	0	0	0	0	0	0	0	0	0	0	0	0	0	0	0	0
3.813	0	0	0	0	0	0	0	0	0	0	0	0	0	0	0	0	0	0
3.814	0	0	0	0	0	0	0	0	0	0	0	0	0	0	0	0	0	0
3.815	0	0	0	0	0	0	0	0	0	0	0	0	0	0	0	0	0	0
3.816	0	0	0	0	0	0	0	0	0	0	0	0	0	0	0	0	0	0
3.817	0	0	0	0	0	0	0	0	0	0	0	0	0	0	0	0	0	0
3.818	0	0	0	0	0	0	0	0	0	0	0	0	0	0	0	0	0	0
3.819	0	0	0	0	0	0	0	0	0	0	0	0	0	0	0	0	0	0
3.82	0	0	0	0	0	0	0	0	0	0	0	0	0	0	0	0	0	0
3.821	0	0	0	0	0	0	0	0	0	0	0	0	0	0	0	0	0	0
3.822	0	0	0	0	0	0	0	0	0	0	0	0	0	0	0	0	0	0
3.823	0	0	0	0	0	0	0	0	0	0	0	0	0	0	0	0	0	0
3.824	0	0	0	0	0	0	0	0	0	0	0	0	0	0	0	0	0	0
3.825	0	0	0	0	0	0	0	0	0	0	0	0	0	0	0	0	0	0
3.826	0	0	0	0	0	0	0	0	0	0	0	0	0	0	0	0	0	0
3.827	0	0	0	0	0	0	0	0	0	0	0	0	0	0	0	0	0	0
3.828	0	0	0	0	0	0	0	0	0	0	0	0	0	0	0	0	0	0
3.829	0	0	0	0	0	0	0	0	0	0	0	0	0	0	0	0	0	0
3.83	0	0	0	0	0	0	0	0	0	0	0	0	0	0	0	0	0	0
3.831	0	0	0	0	0	0	0	0	0	0	0	0	0	0	0	0	0	0
3.832	0	0	0	0	0	0	0	0	0	0	0	0	0	0	0	0	0	0
3.833	0	0	0	0	0	0	0	0	0	0	0	0	0	0	0	0	0	0
3.834	0	0	0	0	0	0	0	0	0	0	0	0	0	0	0	0	0	0
3.835	0	0	0	0	0	0	0	0	0	0	0	0	0	0	0	0	0	0
3.836	0	0	0	0	0	0	0	0	0	0	0	0	0	0	0	0	0	0
3.837	0	0	0	0	0	0	0	0	0	0	0	0	0	0	0	0	0	0
3.838	0	0	0	0	0	0	0	0	0	0	0	0	0	0	0	0	0	0
3.839	0	0	0	0	0	0	0	0	0	0	0	0	0	0	0	0	0	0
3.84	0	0	0	0	0	0	0	0	0	0	0	0	0	0	0	0	0	0
3.841	0	0	0	0	0	0	0	0	0	0	0	0	0	0	0	0	0	0
3.842	0	0	0	0	0	0	0	0	0	0	0	0	0	0	0	0	0	0
3.843	0	0	0	0	0	0	0	0	0	0	0	0	0	0	0	0	0	0
3.844	0	0	0	0	0	0	0	0	0	0	0	0	0	0	0	0	0	0
3.845	0	0	0	0	0	0	0	0	0	0	0	0	0	0	0	0	0	0
3.846	0	0	0	0	0	0	0	0	0	0	0	0	0	0	0	0	0	0
3.847	0	0	0	0	0	0	0	0	0	0	0	0	0	0	0	0	0	0
3.848	0	0	0	0	0	0	0	0	0	0	0	0	0	0	0	0	0	0
3.849	0	0	0	0	0	0	0	0	0	0	0	0	0	0	0	0	0	0
3.85	0	0	0	0	0	0	0	0	0	0	0	0	0	0	0	0	0	0
3.851	0	0	0	0	0	0	0	0	0	0	0	0	0	0	0	0	0	0
3.852	0	0	0	0	0	0	0	0	0	0	0	0	0	0	0	0	0	0
3.853	0	0	0	0	0	0	0	0	0	0	0	0	0	0	0	0	0	0
3.854	0	0	0	0	0	0	-23.501316	54.339752	-7.049367	0.764324	0	-0.415931	0	0	0	-0	1.499806	-0
3.855	0	0	0	0	0	0	-25.705708	60.655098	-8.743518999999999	1.35672	0	-0.355376	0	0	0	-0	1.197276	-0
3.856	0	0	0	0	0	0	-28.016109	67.691498	-10.434353	1.12458	0	-0.377699	0	0	0	-0	0.879203	-0
3.857	0	0	0	0	0	0	-30.419699	75.50385300000001	-12.099122	1.081947	0	-0.381046	0	0	0	-0	0.550249	-0
3.858	0	0	0	0	0	0	-32.900944	84.147408	-13.714655	1.063576	0	-0.382011	0	0	0	-0	0.215018	-0
3.859	0	0	0	0	0	0	-35.4417	93.677193	-15.257569	1.053099	0	-0.382231	0	0	0	0	-0.122014	0
3.86	0	0	0	0	0	0	-38.021397	104.147446	-16.704489	1.046179	0	-0.382138	0	0	0	0	-0.456558	0
3.861	0	0	0	0	0	0	-40.617359	115.610832	-18.03224	1.041169	0	-0.381895	0	0	0	0	-0.78457	0
3.862	0	0	0	0	0	0	-43.2052	128.117661	-19.218048	1.037305	0	-0.381574	0	0	0	0	-1.102295	0
3.863	0	0	0	0	0	0	-45.759365	141.714859	-20.239725	1.034185	0	-0.381214	0	0	0	0	-1.406308	0
3.864	0	0	0	0	0	0	-48.253754	156.444977	-21.075857	1.031574	0	-0.380835	0	0	0	0	-1.693548	0
3.865	0	0	0	0	0	0	-50.662468	172.345032	-21.705996	1.029326	0	-0.38045	0	0	0	0	-1.961337	0
3.866	0	0	0	0	0	0	-52.960644	189.445358	-22.110847	1.027347	0	-0.380067	0	0	0	0	-2.207402	0
3.867	0	0	0	0	0	0	-55.125324	207.768417	-22.272484	1.025573	0	-0.379691	0	0	0	0	-2.429881	0
3.868	0	0	0	0	0	0	-57.136402	227.327591	-22.174545	1.023955	0	-0.379325	0	0	0	0	-2.627328	0
3.869	0	0	0	0	0	0	-58.977543	248.126083	-21.802477	1.022463	0	-0.37897	0	0	0	0	-2.798706	0
3.87	0	0	0	0	0	0	-60.637085	270.155853	-21.143747	1.021069	0	-0.378629	0	0	0	0	-2.943382	0
3.871	0	0	0	0	0	0	-62.108864	293.396729	-20.188093	1.019757	0	-0.378301	0	0	0	0	-3.061111	0
3.872	0	0	0	0	0	0	-63.392887	317.815552	-18.927757	1.01851	0	-0.377989	0	0	0	0	-3.152016	0
3.873	0	0	0	0	0	0	-64.49588799999999	343.365479	-17.357714	1.017317	0	-0.377691	0	0	0	0	-3.216564	0
3.874	0	0	0	0	0	0	-65.431641	369.985687	-15.475901	1.01617	0	-0.377409	0	0	0	0	-3.255543	0
3.875	0	0	0	0	0	0	-66.221046	397.601074	-13.283399	1.015061	0	-0.377142	0	0	0	0	-3.27003	0
3.876	0	0	0	0	0	0	-66.89196800000001	426.122162	-10.784616	1.013984	0	-0.376891	0	0	0	0	-3.261362	0
3.877	0	0	0	0	0	0	-67.47875999999999	455.445435	-7.987428	1.012935	0	-0.376655	0	0	0	0	-3.231102	0
3.878	0	0	0	0	0	0	-68.021545	485.453766	-4.903272	1.011909	0	-0.376434	0	0	0	0	-3.181005	0
3.879	0	0	0	0	0	0	-68.565224	516.017334	-1.547233	1.010903	0	-0.376229	0	0	0	0	-3.112984	0
3.88	0	0	0	0	0	0	-69.15825700000001	546.99469	2.061921	1.009914	0	-0.376039	0	0	0	0	-3.029078	0
3.881	0	0	0	0	0	0	-69.851196	578.23407	5.901721	1.008939	0	-0.375864	0	0	0	0	-2.931415	0
3.882	0	0	0	0	0	0	-70.695213	609.5755	9.946001000000001	1.007977	0	-0.375704	0	0	0	0	-2.822182	0
3.883	0	0	0	0	0	0	-71.74041	640.8526000000001	14.164916	1.007025	0	-0.37556	0	0	0	0	-2.703593	0
3.884	0	0	0	0	0	0	-73.034233	671.895386	18.524971	1.006082	0	-0.37543	0	0	0	0	-2.577856	0
3.885	0	0	0	0	0	0	-74.619957	702.532776	22.989065	1.005144	0	-0.375316	0	0	0	0	-2.44715	0
3.886	0	0	0	0	0	0	-76.535286	732.595764	27.516552	1.00421	0	-0.375216	0	0	0	0	-2.313596	0
3.887	0	0	0	0	0	0	-78.811211	761.920471	32.063313	1.003279	0	-0.375132	0	0	0	0	-2.179234	0
3.888	0	0	0	0	0	0	-81.471138	790.351685	36.581909	1.002347	0	-0.375062	0	0	0	0	-2.046001	0
3.889	0	0	0	0	0	0	-84.53031900000001	817.745911	41.021751	1.001413	0	-0.375007	0	0	0	0	-1.915714	0
3.89	0	0	0	0	0	0	-87.995636	843.974548	45.329407	1.000474	0	-0.374967	0	0	0	0	-1.790053	0
3.891	0	0	0	0	0	0	-91.86567700000001	868.92688	49.449001	0.9995270000000001	0	-0.374941	0	0	0	0	-1.670546	0
3.892	0	0	0	0	0	0	-96.131203	892.5124510000001	53.322781	0.99857	0	-0.37493	0	0	0	0	-1.558561	0
3.893	0	0	0	0	0	0	-100.775818	914.663391	56.891823	0.997599	0	-0.374933	0	0	0	0	-1.455297	0
3.894	0	0	0	0	0	0	-105.776894	935.335632	60.096985	0.99661	0	-0.374951	0	0	0	0	-1.361777	0
3.895	0	0	0	0	0	0	-111.106598	954.509888	62.880013	0.995601	0	-0.374982	0	0	0	0	-1.278849	0
3.896	0	0	0	0	0	0	-116.733055	972.192017	65.184837	0.994567	0	-0.375026	0	0	0	0	-1.207178	0
3.897	0	0	0	0	0	0	-122.621452	988.412415	66.959091	0.9935040000000001	0	-0.375084	0	0	0	0	-1.147257	0
3.898	0	0	0	0	0	0	-128.735062	1003.224792	68.15570099999999	0.992408	0	-0.375154	0	0	0	0	-1.099404	0
3.899	0	0	0	0	0	0	-135.036148	1016.704529	68.734612	0.991274	0	-0.375236	0	0	0	0	-1.06377	0
3.9	0	0	0	0	0	0	-141.486664	1028.946533	68.664536	0.990096	0	-0.375329	0	0	0	0	-1.040347	0
3.901	0	0	0	0	0	0	-148.048691	1040.062012	67.92459100000001	0.9888710000000001	0	-0.375433	0	0	0	0	-1.028976	0
3.902	0	0	0	0	0	0	-154.684799	1050.175903	66.505859	0.987594	0	-0.375547	0	0	0	0	-1.029358	0
3.903	0	0	0	0	0	0	-161.358017	1059.423218	64.412727	0.9862570000000001	0	-0.375669	0	0	0	0	-1.041069	0
3.904	0	0	0	0	0	0	-168.031799	1067.945679	61.66386	0.984858	0	-0.3758	0	0	0	0	-1.063564	0
3.905	0	0	0	0	0	0	-174.669769	1075.88855	58.292877	0.98339	0	-0.375937	0	0	0	0	-1.096202	0
3.906	0	0	0	0	0	0	-181.23555	1083.397461	54.348511	0.9818480000000001	0	-0.376079	0	0	0	0	-1.138249	0
3.907	0	0	0	0	0	0	-187.692459	1090.61499	49.894344	0.980227	0	-0.376226	0	0	0	0	-1.188901	0
3.908	0	0	0	0	0	0	-194.003418	1097.678711	45.007999	0.978523	0	-0.376375	0	0	0	0	-1.247291	0
3.909	0	0	0	0	0	0	-200.13092	1104.718628	39.779827	0.976731	0	-0.376525	0	0	0	0	-1.312508	0
3.91	0	0	0	0	0	0	-206.037247	1111.855469	34.3111	0.974847	0	-0.376676	0	0	0	0	-1.38361	0
3.911	0	0	0	0	0	0	-211.684677	1119.199707	28.711767	0.972867	0	-0.376825	0	0	0	0	-1.459635	0
3.912	0	0	0	0	0	0	-217.036102	1126.849731	23.097832	0.970788	0	-0.376971	0	0	0	0	-1.539617	0
3.913	0	0	0	0	0	0	-222.055649	1134.892212	17.588432	0.968608	0	-0.377113	0	0	0	0	-1.622594	0
3.914	0	0	0	0	0	0	-226.709366	1143.401367	12.302733	0.966324	0	-0.377249	0	0	0	0	-1.707622	0
3.915	0	0	0	0	0	0	-230.966049	1152.438843	7.356743	0.963934	0	-0.377378	0	0	0	0	-1.793783	0
3.916	0	0	0	0	0	0	-234.797989	1162.054077	2.860171	0.961439	0	-0.377499	0	0	0	0	-1.880195	0
